<svg version="1.1" xmlns="http://www.w3.org/2000/svg" xmlns:xlink="http://www.w3.org/1999/xlink" width="500" height="500"><defs><linearGradient x1="50" y1="191.65098" x2="50" y2="308.34902" gradientUnits="userSpaceOnUse" id="color-1"><stop offset="0" stop-color="#42b671"></stop><stop offset="1" stop-color="#4271b6"></stop></linearGradient></defs><g data-paper-data="{&quot;description&quot;:&quot;Logo for PARQUE INDUSTRIAL VIEDMA\n=================================\n\nThis logo was generated by MarkMaker at http://emblemmatic.org/markmaker/ and may be composed of elements designed by others.\n\nThe font is Work Sans Bold designed by Wei Huang and released under the OFL license via Google Fonts: https://www.google.com/fonts/specimen/Work%20Sans. The font includes this copyright statement: Copyright (c) 2014-2015 Wei Huang (wweeiihhuuaanngg@gmail.com)\n\nMarkMaker uses semantic data from the Princeton University WordNet database http://wordnet.princeton.edu and font descriptions from Google Fonts https://www.google.com/fonts.&quot;}" fill="url(#color-1)" fill-rule="nonzero" stroke="none" stroke-width="1" stroke-linecap="butt" stroke-linejoin="miter" stroke-miterlimit="10" stroke-dasharray="" stroke-dashoffset="0" font-family="none" font-weight="none" font-size="none" text-anchor="none" style="mix-blend-mode: normal"><g data-paper-data="{&quot;elementType&quot;:&quot;logo&quot;}"><g data-paper-data="{&quot;elementType&quot;:&quot;text&quot;}"><g data-paper-data="{&quot;baseline&quot;:67,&quot;elementType&quot;:&quot;row&quot;}"><g data-paper-data="{&quot;baselineProportion&quot;:0.7665903890160183,&quot;fontSize&quot;:100,&quot;baseline&quot;:67,&quot;elementType&quot;:&quot;word&quot;}"><path d="M66.2947,192.18876c4.40979,0 7.7978,1.01282 10.16402,3.03845c2.36623,2.02563 3.54934,4.9386 3.54934,8.73891c0,3.62105 -1.18311,6.42646 -3.54934,8.41624c-2.36623,1.98978 -5.75424,2.98467 -10.16402,2.98467h-7.0449v12.31514h-9.2498v-35.49341h16.2947M64.8427,208.59102c2.00771,0 3.4866,-0.38541 4.43668,-1.15622c0.95008,-0.77082 1.42511,-1.96289 1.42511,-3.57623c0,-1.57748 -0.47504,-2.75164 -1.42511,-3.52245c-0.95008,-0.77082 -2.42897,-1.15622 -4.43668,-1.15622h-5.5929v9.41113z" data-paper-data="{&quot;elementType&quot;:&quot;letter&quot;,&quot;baseline&quot;:66,&quot;baselineProportion&quot;:1,&quot;fontSize&quot;:100}"></path><path d="M111.46814,219.66927h-12.26136l-2.47378,8.01291h-9.30358l12.47647,-35.49341h11.07825l12.42269,35.49341h-9.51869l-2.42001,-8.01291M109.53213,213.37725l-2.58134,-8.49691l-1.55956,-5.5929h-0.10756l-1.452,5.53912l-2.68889,8.55069z" data-paper-data="{&quot;elementType&quot;:&quot;letter&quot;,&quot;baseline&quot;:66,&quot;baselineProportion&quot;:1,&quot;fontSize&quot;:100}"></path><path d="M150.99489,214.7217h-5.53912v12.96047h-9.08846v-35.49341h16.94004c4.30223,0 7.60957,0.968 9.92202,2.90401c2.31245,1.936 3.46867,4.73245 3.46867,8.38935c0,2.58134 -0.59156,4.73245 -1.77467,6.45335c-1.18311,1.72089 -2.90401,2.99364 -5.16268,3.81823l9.03469,13.92848h-10.2178l-7.58268,-12.96047M145.45577,208.1608h6.29201c1.97186,0 3.40593,-0.35852 4.30223,-1.07556c0.8963,-0.71704 1.34445,-1.8643 1.34445,-3.44179c0,-1.54163 -0.44815,-2.67097 -1.34445,-3.38801c-0.8963,-0.71704 -2.33038,-1.07556 -4.30223,-1.07556h-6.29201z" data-paper-data="{&quot;elementType&quot;:&quot;letter&quot;,&quot;baseline&quot;:66,&quot;baselineProportion&quot;:1,&quot;fontSize&quot;:100}"></path><path d="M206.11724,231.44663c2.90401,0 5.1089,-0.69911 6.61468,-2.09734l2.20489,6.72224c-0.93215,0.82459 -2.18697,1.46097 -3.76445,1.90912c-1.57748,0.44815 -3.37008,0.67222 -5.37779,0.67222c-3.54934,0 -6.29201,-0.85148 -8.22802,-2.55445c-1.936,-1.70297 -2.90401,-4.04231 -2.90401,-7.01802l0.05378,-1.07556c-4.48149,-0.60948 -7.98602,-2.49171 -10.51358,-5.64668c-2.52756,-3.15497 -3.79134,-7.29587 -3.79134,-12.42269c0,-3.8003 0.69911,-7.07179 2.09734,-9.81447c1.39823,-2.74267 3.40593,-4.84001 6.02312,-6.29201c2.61719,-1.452 5.71838,-2.178 9.30358,-2.178c3.58519,0 6.67742,0.726 9.27669,2.178c2.59927,1.452 4.59801,3.54934 5.99624,6.29201c1.39823,2.74267 2.09734,6.01416 2.09734,9.81447c0,5.19853 -1.28171,9.37528 -3.84512,12.53025c-2.56341,3.15497 -6.12172,5.01927 -10.67491,5.5929c0.14341,1.25482 0.67222,2.13319 1.58645,2.63512c0.91422,0.50193 2.19593,0.75289 3.84512,0.75289M189.87631,209.93547c0,3.62105 0.68119,6.36372 2.04356,8.22802c1.36237,1.8643 3.33423,2.79645 5.91557,2.79645c2.58134,0 4.54423,-0.93215 5.88868,-2.79645c1.34445,-1.8643 2.01667,-4.60697 2.01667,-8.22802c0,-3.62105 -0.67222,-6.36372 -2.01667,-8.22802c-1.34445,-1.8643 -3.30734,-2.79645 -5.88868,-2.79645c-2.58134,0 -4.5532,0.93215 -5.91557,2.79645c-1.36237,1.8643 -2.04356,4.60697 -2.04356,8.22802z" data-paper-data="{&quot;elementType&quot;:&quot;letter&quot;,&quot;baseline&quot;:67,&quot;baselineProportion&quot;:0.7665903890160183,&quot;fontSize&quot;:100}"></path><path d="M261.45469,213.21592c0,4.98342 -1.32652,8.72995 -3.97956,11.23958c-2.65304,2.50964 -6.61468,3.76445 -11.88492,3.76445c-5.23438,0 -9.18706,-1.25482 -11.85803,-3.76445c-2.67097,-2.50964 -4.00645,-6.25616 -4.00645,-11.23958v-21.02716h9.30358v21.18849c0,2.54549 0.53778,4.44564 1.61334,5.70046c1.07556,1.25482 2.72475,1.88223 4.94757,1.88223c4.44564,0 6.66846,-2.52756 6.66846,-7.58268v-21.18849h9.19602z" data-paper-data="{&quot;elementType&quot;:&quot;letter&quot;,&quot;baseline&quot;:66,&quot;baselineProportion&quot;:0.9850746268656716,&quot;fontSize&quot;:100}"></path><path d="M305.87524,220.52971v7.15246h-28.34095v-35.49341h27.64184v7.15246h-18.39204v7.20624h14.62759v6.72224h-14.62759v7.26002z" data-paper-data="{&quot;elementType&quot;:&quot;letter&quot;,&quot;baseline&quot;:66,&quot;baselineProportion&quot;:1,&quot;fontSize&quot;:100}"></path></g></g><g data-paper-data="{&quot;baseline&quot;:67,&quot;elementType&quot;:&quot;row&quot;}"><g data-paper-data="{&quot;baselineProportion&quot;:0.9852941176470589,&quot;fontSize&quot;:100,&quot;baseline&quot;:67,&quot;elementType&quot;:&quot;word&quot;}"><path d="M59.2498,268.0156h-9.2498v-35.49341h9.2498z" data-paper-data="{&quot;elementType&quot;:&quot;letter&quot;,&quot;baseline&quot;:66,&quot;baselineProportion&quot;:1,&quot;fontSize&quot;:100}"></path><path d="M107.9188,268.0156h-10.27158l-11.02447,-19.19871l-2.68889,-5.37779h-0.05378l0.21511,6.66846v17.90804h-8.17424v-35.49341h10.27158l11.02447,19.19871l2.68889,5.37779h0.05378l-0.21511,-6.66846v-17.90804h8.17424z" data-paper-data="{&quot;elementType&quot;:&quot;letter&quot;,&quot;baseline&quot;:66,&quot;baselineProportion&quot;:1,&quot;fontSize&quot;:100}"></path><path d="M139.64775,232.52218c5.55705,0 9.81447,1.53267 12.77225,4.59801c2.95778,3.06534 4.43668,7.44824 4.43668,13.1487c0,5.70046 -1.47889,10.08336 -4.43668,13.1487c-2.95778,3.06534 -7.2152,4.59801 -12.77225,4.59801h-15.05781v-35.49341h15.05781M138.73353,261.02447c2.97571,0 5.16268,-0.8963 6.5609,-2.68889c1.39823,-1.7926 2.09734,-4.48149 2.09734,-8.06668c0,-3.58519 -0.69911,-6.27409 -2.09734,-8.06668c-1.39823,-1.7926 -3.58519,-2.68889 -6.5609,-2.68889h-4.89379v21.51116z" data-paper-data="{&quot;elementType&quot;:&quot;letter&quot;,&quot;baseline&quot;:66,&quot;baselineProportion&quot;:1,&quot;fontSize&quot;:100}"></path><path d="M203.10567,253.54934c0,4.98342 -1.32652,8.72995 -3.97956,11.23958c-2.65304,2.50964 -6.61468,3.76445 -11.88492,3.76445c-5.23438,0 -9.18706,-1.25482 -11.85803,-3.76445c-2.67097,-2.50964 -4.00645,-6.25616 -4.00645,-11.23958v-21.02716h9.30358v21.18849c0,2.54549 0.53778,4.44564 1.61334,5.70046c1.07556,1.25482 2.72475,1.88223 4.94757,1.88223c4.44564,0 6.66846,-2.52756 6.66846,-7.58268v-21.18849h9.19602z" data-paper-data="{&quot;elementType&quot;:&quot;letter&quot;,&quot;baseline&quot;:66,&quot;baselineProportion&quot;:0.9850746268656716,&quot;fontSize&quot;:100}"></path><path d="M233.05996,231.9844c3.37008,0 6.2472,0.50193 8.63135,1.50578c2.38415,1.00385 4.59801,2.63512 6.64157,4.89379l-5.21646,6.02312c-1.18311,-1.7926 -2.57238,-3.11016 -4.16779,-3.95268c-1.59541,-0.84252 -3.50453,-1.26378 -5.72735,-1.26378c-1.8643,0 -3.29838,0.32267 -4.30223,0.968c-1.00385,0.64533 -1.50578,1.50578 -1.50578,2.58134c0,0.8963 0.52882,1.6223 1.58645,2.178c1.05763,0.5557 2.85919,1.06659 5.40468,1.53267c4.91171,0.8963 8.41624,2.20489 10.51358,3.92579c2.09734,1.72089 3.14601,4.1409 3.14601,7.26002c0,2.25867 -0.64533,4.2126 -1.936,5.86179c-1.29067,1.64919 -3.0743,2.90401 -5.3509,3.76445c-2.2766,0.86045 -4.84897,1.29067 -7.71713,1.29067c-4.01542,0 -7.27794,-0.49296 -9.78758,-1.47889c-2.50964,-0.98593 -4.67868,-2.50067 -6.50713,-4.54423l4.73245,-6.45335c1.39823,1.936 2.97571,3.29838 4.73245,4.08712c1.75674,0.78874 3.87201,1.18311 6.34579,1.18311c1.97186,0 3.45075,-0.27785 4.43668,-0.83356c0.98593,-0.5557 1.47889,-1.35341 1.47889,-2.39312c0,-0.82459 -0.52882,-1.49682 -1.58645,-2.01667c-1.05763,-0.51985 -2.82334,-1.01282 -5.29712,-1.47889c-3.04741,-0.60948 -5.56601,-1.33548 -7.55579,-2.178c-1.98978,-0.84252 -3.53142,-1.98082 -4.6249,-3.4149c-1.09348,-1.43408 -1.64023,-3.26253 -1.64023,-5.48535c0,-2.22282 0.60052,-4.2126 1.80156,-5.96935c1.20104,-1.75674 2.95778,-3.12808 5.27023,-4.11401c2.31245,-0.98593 5.04616,-1.47889 8.20113,-1.47889z" data-paper-data="{&quot;elementType&quot;:&quot;letter&quot;,&quot;baseline&quot;:67,&quot;baselineProportion&quot;:0.9852941176470589,&quot;fontSize&quot;:100}"></path><path d="M291.8392,239.67464h-11.56225v28.34095h-9.2498v-28.34095h-11.61603v-7.15246h32.42807z" data-paper-data="{&quot;elementType&quot;:&quot;letter&quot;,&quot;baseline&quot;:66,&quot;baselineProportion&quot;:1,&quot;fontSize&quot;:100}"></path><path d="M320.5566,255.05512h-5.53912v12.96047h-9.08846v-35.49341h16.94004c4.30223,0 7.60957,0.968 9.92202,2.90401c2.31245,1.936 3.46867,4.73245 3.46867,8.38935c0,2.58134 -0.59156,4.73245 -1.77467,6.45335c-1.18311,1.72089 -2.90401,2.99364 -5.16268,3.81823l9.03469,13.92848h-10.2178l-7.58268,-12.96047M315.01748,248.49422h6.29201c1.97186,0 3.40593,-0.35852 4.30223,-1.07556c0.8963,-0.71704 1.34445,-1.8643 1.34445,-3.44179c0,-1.54163 -0.44815,-2.67097 -1.34445,-3.38801c-0.8963,-0.71704 -2.33038,-1.07556 -4.30223,-1.07556h-6.29201z" data-paper-data="{&quot;elementType&quot;:&quot;letter&quot;,&quot;baseline&quot;:66,&quot;baselineProportion&quot;:1,&quot;fontSize&quot;:100}"></path><path d="M361.05136,268.0156h-9.2498v-35.49341h9.2498z" data-paper-data="{&quot;elementType&quot;:&quot;letter&quot;,&quot;baseline&quot;:66,&quot;baselineProportion&quot;:1,&quot;fontSize&quot;:100}"></path><path d="M398.05055,260.00269h-12.26136l-2.47378,8.01291h-9.30358l12.47647,-35.49341h11.07825l12.42269,35.49341h-9.51869l-2.42001,-8.01291M396.11455,253.71067l-2.58134,-8.49691l-1.55956,-5.5929h-0.10756l-1.452,5.53912l-2.68889,8.55069z" data-paper-data="{&quot;elementType&quot;:&quot;letter&quot;,&quot;baseline&quot;:66,&quot;baselineProportion&quot;:1,&quot;fontSize&quot;:100}"></path><path d="M450,260.86314v7.15246h-27.05028v-35.49341h9.2498v28.34095z" data-paper-data="{&quot;elementType&quot;:&quot;letter&quot;,&quot;baseline&quot;:66,&quot;baselineProportion&quot;:1,&quot;fontSize&quot;:100}"></path></g></g><g data-paper-data="{&quot;baseline&quot;:66,&quot;elementType&quot;:&quot;row&quot;}"><g data-paper-data="{&quot;baselineProportion&quot;:1,&quot;fontSize&quot;:100,&quot;baseline&quot;:66,&quot;elementType&quot;:&quot;word&quot;}"><path d="M73.50094,308.34902h-10.86314l-12.63781,-35.49341h9.7338l6.50713,21.45738l1.936,6.99113l1.88223,-6.88357l6.61468,-21.56494h9.41113z" data-paper-data="{&quot;elementType&quot;:&quot;letter&quot;,&quot;baseline&quot;:66,&quot;baselineProportion&quot;:1,&quot;fontSize&quot;:100}"></path><path d="M108.4028,308.34902h-9.2498v-35.49341h9.2498z" data-paper-data="{&quot;elementType&quot;:&quot;letter&quot;,&quot;baseline&quot;:66,&quot;baselineProportion&quot;:1,&quot;fontSize&quot;:100}"></path><path d="M153.4149,301.19656v7.15246h-28.34095v-35.49341h27.64184v7.15246h-18.39204v7.20624h14.62759v6.72224h-14.62759v7.26002z" data-paper-data="{&quot;elementType&quot;:&quot;letter&quot;,&quot;baseline&quot;:66,&quot;baselineProportion&quot;:1,&quot;fontSize&quot;:100}"></path><path d="M182.88518,272.85561c5.55705,0 9.81447,1.53267 12.77225,4.59801c2.95778,3.06534 4.43668,7.44824 4.43668,13.1487c0,5.70046 -1.47889,10.08336 -4.43668,13.1487c-2.95778,3.06534 -7.2152,4.59801 -12.77225,4.59801h-15.05781v-35.49341h15.05781M181.97096,301.35789c2.97571,0 5.16268,-0.8963 6.5609,-2.68889c1.39823,-1.7926 2.09734,-4.48149 2.09734,-8.06668c0,-3.58519 -0.69911,-6.27409 -2.09734,-8.06668c-1.39823,-1.7926 -3.58519,-2.68889 -6.5609,-2.68889h-4.89379v21.51116z" data-paper-data="{&quot;elementType&quot;:&quot;letter&quot;,&quot;baseline&quot;:66,&quot;baselineProportion&quot;:1,&quot;fontSize&quot;:100}"></path><path d="M256.34579,308.34902h-8.17424v-16.2947l0.26889,-10.91691h-0.10756l-8.7658,27.21162h-7.47513l-8.7658,-27.21162h-0.10756l0.26889,10.91691v16.2947h-8.22802v-35.49341h13.17558l5.5929,18.06937l1.98978,7.52891h0.10756l2.04356,-7.47513l5.53912,-18.12315h12.63781z" data-paper-data="{&quot;elementType&quot;:&quot;letter&quot;,&quot;baseline&quot;:66,&quot;baselineProportion&quot;:1,&quot;fontSize&quot;:100}"></path><path d="M293.34499,300.33611h-12.26136l-2.47378,8.01291h-9.30358l12.47647,-35.49341h11.07825l12.42269,35.49341h-9.51869l-2.42001,-8.01291M291.40898,294.0441l-2.58134,-8.49691l-1.55956,-5.5929h-0.10756l-1.452,5.53912l-2.68889,8.55069z" data-paper-data="{&quot;elementType&quot;:&quot;letter&quot;,&quot;baseline&quot;:66,&quot;baselineProportion&quot;:1,&quot;fontSize&quot;:100}"></path></g></g></g></g></g></svg>